# xmcd
#
# Track frame offsets: 
#        150
#        16230
#        35552
#        50795
#        66695
#        82605
#        95805
#        110335
#        122210
#        134442
#
# Disc length: 2001 seconds
#
# Revision: 2
# Processed by: cddbd v1.4PL0 Copyright (c) Steve Scherf et al.
# Submitted via: ExactAudioCopy v0.90b3
#
DISCID=8d07cf0a
DTITLE=George Jones - You Oughta Be Here With Me
DYEAR=1900
DGENRE=Country
TTITLE0=Hell Stays Open (All Night Long)
TTITLE1=You Oughta Be Here With Me
TTITLE2=Somebody Always Paints The Wall
TTITLE3=I Sleep Just Like A Baby
TTITLE4=Someone That You Used To Know
TTITLE5=I Want To Grow Old With You
TTITLE6=A Cold Day In December
TTITLE7=Six Foot Deep, Six Foot Down
TTITLE8=If The World Don't End Tomorrow
TTITLE9=Ol' Red
EXTD=
EXTT0=B Harden
EXTT1=R Miller
EXTT2=E Kahanex - T Smith - N Lakin - C Browder
EXTT3=J Chambers - L Jenkins - B Sherbill
EXTT4=B Whitlock - J Tempchin
EXTT5=B Braddock
EXTT6=B Braddock
EXTT7=C Putman - D Cook - C Rains
EXTT8=B Sherrill
EXTT9=M Sherrill - D Goodman
PLAYORDER=
